<svg xmlns="http://www.w3.org/2000/svg" width="507" height="503" fill="none" viewBox="0 0 507 503">
  <g filter="url(#filter0_f_129_2)" opacity=".3">
    <rect width="300" height="360" fill="url(#paint0_linear_129_2)" rx="50" transform="scale(1 -1) rotate(-31 -558.014 -154.751)"/>
    <rect width="293" height="353" x="4.803" y="-1.197" fill="url(#paint1_linear_129_2)" rx="46.5" transform="scale(1 -1) rotate(-31 -586.393 -289.972)"/>
    <rect width="293" height="353" x="4.803" y="-1.197" stroke="url(#paint2_linear_129_2)" stroke-width="7" rx="46.5" transform="scale(1 -1) rotate(-31 -586.393 -289.972)"/>
    <rect width="293" height="353" x="4.803" y="-1.197" stroke="url(#paint3_linear_129_2)" stroke-width="7" rx="46.5" transform="scale(1 -1) rotate(-31 -586.393 -289.972)"/>
    <g clip-path="url(#clip0_129_2)">
      <path fill="#569AE9" d="M334.307 190.64c-21.461-12.993-46.569-16.935-70.872-10.962-24.303 5.973-44.724 21.104-57.717 42.565-12.993 21.462-16.935 46.57-10.962 70.873 5.973 24.302 21.105 44.723 42.566 57.716 21.461 12.994 46.569 16.935 70.872 10.962 24.303-5.973 44.724-21.104 57.717-42.565 12.993-21.461 16.935-46.57 10.962-70.872-5.973-24.303-21.105-44.724-42.566-57.717zm-12.835 10.82c1.649.737 3.181 1.665 4.714 2.593 2.108 1.276 4.1 2.744 6.092 4.212.401 14.907-1.386 29.536-5.628 43.464l-33.917-20.534c.591-3.57.107-7.529-1.34-10.762 9.058-7.608 19.11-13.83 30.079-18.973zm-20.524-7.188c-7.701 4.502-14.636 9.469-21.228 15.166-6.253-2.214-12.98-1.05-18.22 2.847l-14.755-8.932c16.133-9.348 35.585-12.498 54.203-9.081zm-81.625 36.208c3.828-6.323 8.499-11.875 13.628-16.887l20.695 12.529c-.358 3.187.166 6.647 1.421 9.764a163.28 163.28 0 00-8.232 12.298 156.724 156.724 0 00-9.523 18.325L210.869 250.5c1.564-6.909 4.626-13.696 8.454-20.02zm-11.326 36.873l23.378 14.153c-3.89 12.047-6.282 24.216-7.1 36.813-11.199-14.374-16.85-32.721-16.278-50.966zm52.252-11.048c1.972-3.257 4.136-6.399 6.299-9.54 6.062 2.098 12.557 1.317 17.565-2.197l36.982 22.39c-2.713 6.213-5.735 12.501-9.215 18.25-2.204 3.64-4.6 7.165-7.188 10.574-5.562-2.058-11.558-1.237-16.601 1.47l-37.366-22.622a156.5 156.5 0 019.524-18.325zm-9.592 83.747c-1.841-.852-3.565-1.896-5.098-2.824-1.916-1.161-3.833-2.321-5.633-3.672-.401-14.907 1.386-29.537 5.628-43.465l33.342 20.186c-.823 3.954-.455 8.104.952 11.836-9.018 7.109-18.646 13.064-29.191 17.939zm20.524 7.189a165.962 165.962 0 0020.032-14.057c6.636 2.446 14.095.939 19.375-3.457l13.989 8.468c-15.71 9.081-34.778 12.462-53.396 9.046zm81.125-36.249c-3.828 6.323-8.615 12.067-13.82 16.771L317.6 315.118c.126-2.804-.438-5.764-1.426-8.457 3.167-4.367 6.335-8.734 9.119-13.333a153.251 153.251 0 009.407-18.133l26.06 15.778c-1.68 7.1-4.626 13.696-8.454 20.019zm-11.784-50.602c3.773-11.856 6.281-24.216 7.1-36.813 11.082 14.565 16.658 32.605 15.894 50.734l-22.994-13.921z"/>
    </g>
  </g>
  <defs>
    <linearGradient id="paint0_linear_129_2" x1="60.963" x2="57.689" y1="-.86" y2="360.687" gradientUnits="userSpaceOnUse">
      <stop stop-color="#182A45"/>
      <stop offset=".156" stop-color="#05152F"/>
      <stop offset=".759" stop-color="#07122D"/>
      <stop offset=".834" stop-color="#031E4E"/>
      <stop offset=".917" stop-color="#040918"/>
      <stop offset="1" stop-color="#040918"/>
    </linearGradient>
    <linearGradient id="paint1_linear_129_2" x1="150" x2="150" y1="0" y2="360" gradientUnits="userSpaceOnUse">
      <stop stop-color="#13213B"/>
      <stop offset=".832" stop-color="#15304C"/>
      <stop offset="1" stop-color="#0B3761"/>
    </linearGradient>
    <linearGradient id="paint2_linear_129_2" x1="274.342" x2="27.395" y1="11.37" y2="349.948" gradientUnits="userSpaceOnUse">
      <stop offset=".745" stop-color="#152E4A"/>
      <stop offset=".926" stop-color="#143776"/>
      <stop offset="1" stop-color="#15253C"/>
    </linearGradient>
    <linearGradient id="paint3_linear_129_2" x1="34.176" x2="149.24" y1="-57.419" y2="108.328" gradientUnits="userSpaceOnUse">
      <stop stop-color="#fff" stop-opacity=".4"/>
      <stop offset="1" stop-color="#fff" stop-opacity="0"/>
    </linearGradient>
    <clipPath id="clip0_129_2">
      <path fill="#fff" d="M0 0h224v224H0z" transform="rotate(-148.808 221.061 167.11)"/>
    </clipPath>
    <filter id="filter0_f_129_2" width="485.646" height="480.514" x="10.603" y="11.524" color-interpolation-filters="sRGB" filterUnits="userSpaceOnUse">
      <feFlood flood-opacity="0" result="BackgroundImageFix"/>
      <feBlend in="SourceGraphic" in2="BackgroundImageFix" result="shape"/>
      <feGaussianBlur result="effect1_foregroundBlur_129_2" stdDeviation="4"/>
    </filter>
  </defs>
</svg>
