<svg xmlns="http://www.w3.org/2000/svg" width="361" height="361" fill="none" viewBox="0 0 361 361">
  <rect width="353" height="353" x="3.64" y="4.36" fill="url(#paint0_linear_129_9)" rx="46.5"/>
  <rect width="353" height="353" x="3.64" y="4.36" stroke="url(#paint1_linear_129_9)" stroke-width="7" rx="46.5"/>
  <rect width="353" height="353" x="3.64" y="4.36" stroke="url(#paint2_linear_129_9)" stroke-width="7" rx="46.5"/>
  <g>
    <path fill="url(#paint3_linear_129_9)" d="M180.961 274.925c25.087-.178 48.538-9.977 66.108-27.799 17.57-17.821 27.034-41.409 26.856-66.496-.178-25.088-9.977-48.539-27.799-66.108-17.821-17.57-41.409-27.035-66.496-26.856-25.088.178-48.539 9.977-66.108 27.798-17.57 17.822-27.035 41.41-26.856 66.497.178 25.087 9.977 48.538 27.798 66.108 17.822 17.57 41.41 27.034 66.497 26.856zm5.263-15.942c-1.791.237-3.582.25-5.374.262-2.464.018-4.93-.189-7.395-.395-8.153-12.486-14.297-25.883-17.981-39.969l39.647-.282c1.368 3.35 3.854 6.469 6.78 8.464-3.728 11.227-9.029 21.793-15.677 31.92zm21.247-4.631c4.201-7.87 7.505-15.734 10.134-24.041 6.486-1.39 11.606-5.906 14.027-11.972l17.248-.122c-8.844 16.415-23.761 29.289-41.409 36.135zm50.55-73.609c.053 7.392-1.016 14.567-2.759 21.524l-24.191.172c-1.365-2.903-3.624-5.575-6.326-7.571.413-4.931.602-9.861.567-14.789a156.518 156.518 0 00-1.491-20.598l30.912-.219c2.287 6.703 3.236 14.089 3.288 21.481zm-9.673-37.34l-27.328.194c-2.999-12.299-7.338-23.917-13.241-35.075 17.069 6.375 31.496 19.041 40.569 34.881zm-38.716 36.788c.027 3.808-.17 7.617-.367 11.427-6.262 1.388-11.385 5.457-13.809 11.074l-43.231.307c-.944-6.713-1.665-13.652-1.713-20.372-.03-4.256.164-8.513.581-12.772 5.816-1.162 10.493-5.003 13.37-9.952l43.679-.31c.944 6.713 1.441 13.654 1.49 20.598zm-35.712-76.356c2.015-.239 4.031-.253 5.823-.266 2.24-.016 4.48-.032 6.721.177 8.153 12.486 14.297 25.883 17.981 39.969l-38.975.277c-1.371-3.799-3.859-7.141-7.013-9.583 3.956-10.78 9.036-20.896 15.463-30.574zm-21.247 4.631a165.835 165.835 0 00-9.697 22.469c-6.934 1.394-12.497 6.585-14.691 13.097l-16.351.116c8.622-15.965 23.091-28.836 40.739-35.682zm-50.104 73.382c-.052-7.392 1.015-14.792 2.983-21.526l24.416-.173c1.361 2.454 3.393 4.68 5.646 6.456-.41 5.379-.82 10.758-.782 16.134.05 6.943.546 13.66 1.489 20.374l-30.463.216c-2.289-6.928-3.236-14.089-3.289-21.481zm36.552 36.925c2.998 12.075 7.338 23.916 13.241 35.075-17.071-6.599-31.272-19.042-40.121-34.884l26.88-.191z"/>
  </g>
  <defs>
    <linearGradient id="paint0_linear_129_9" x1="180.14" x2="180.14" y1=".86" y2="360.86" gradientUnits="userSpaceOnUse">
      <stop stop-color="#13213B"/>
      <stop offset=".832" stop-color="#15304C"/>
      <stop offset="1" stop-color="#0B3761"/>
    </linearGradient>
    <linearGradient id="paint1_linear_129_9" x1="329.35" x2="99.134" y1="12.23" y2="390.996" gradientUnits="userSpaceOnUse">
      <stop offset=".745" stop-color="#152E4A"/>
      <stop offset=".926" stop-color="#143776"/>
      <stop offset="1" stop-color="#15253C"/>
    </linearGradient>
    <linearGradient id="paint2_linear_129_9" x1="41.151" x2="147.617" y1="-56.559" y2="127.475" gradientUnits="userSpaceOnUse">
      <stop stop-color="#fff" stop-opacity=".4"/>
      <stop offset="1" stop-color="#fff" stop-opacity="0"/>
    </linearGradient>
    <linearGradient id="paint3_linear_129_9" x1="120.998" x2="164.77" y1="133.128" y2="468.321" gradientUnits="userSpaceOnUse">
      <stop stop-color="#569AE9"/>
      <stop offset="1" stop-color="#569AE9" stop-opacity="0"/>
    </linearGradient>
  </defs>
</svg>